<?xml version="1.0" standalone="no"?><!DOCTYPE svg PUBLIC "-//W3C//DTD SVG 1.1//EN" "http://www.w3.org/Graphics/SVG/1.1/DTD/svg11.dtd"><svg t="1512137909958" class="icon" style="" viewBox="0 0 1024 1024" version="1.1" xmlns="http://www.w3.org/2000/svg" p-id="1001" xmlns:xlink="http://www.w3.org/1999/xlink" width="200" height="200"><defs><style type="text/css"></style></defs><path d="M679.292656 307.684638 630.657982 307.684638 630.657982 260.031315 583.004659 260.031315 583.004659 212.375945 534.605346 212.375945 534.605346 164.628478 486.949976 164.628478 486.949976 212.375945 440.04162 212.375945 440.04162 260.031315 392.38625 260.031315 392.38625 307.684638 344.73088 307.684638 344.73088 354.315678 679.292656 354.315678Z" p-id="1002" fill="#555555"></path><path d="M106.435613 545.83255 201.767841 545.83255 201.767841 831.761698 249.422188 831.761698 249.422188 545.83255 344.73088 545.83255 344.73088 498.194576 106.435613 498.194576Z" p-id="1003" fill="#555555"></path><path d="M392.38625 545.83255 392.38625 783.456528l-0.140193 0 0 47.6523 238.273778 0 0-47.003524 0.138146 0L630.657982 545.83255l0-47.63695L392.38625 498.195599 392.38625 545.83255zM583.004659 545.83255 583.004659 783.456528 440.04162 783.456528 440.04162 545.83255 583.004659 545.83255z" p-id="1004" fill="#555555"></path><path d="M679.292656 498.194576l0 47.63695 0 95.310739 0 47.654346 0 142.964062 47.653323 0L726.945979 688.797635l142.963039 0 0 0 47.653323 0 0 0 0-47.654346 0-95.310739 0-47.63695L679.292656 498.195599zM869.910041 641.142266 726.947002 641.142266l0-95.310739 142.963039 0L869.910041 641.142266z" p-id="1005" fill="#777777"></path></svg>