<?xml version="1.0" standalone="no"?><!DOCTYPE svg PUBLIC "-//W3C//DTD SVG 1.1//EN" "http://www.w3.org/Graphics/SVG/1.1/DTD/svg11.dtd"><svg t="1504189402601" class="icon" style="" viewBox="0 0 1024 1024" version="1.1" xmlns="http://www.w3.org/2000/svg" p-id="6475" xmlns:xlink="http://www.w3.org/1999/xlink" width="256" height="256"><defs><style type="text/css"></style></defs><path d="M512 56.888889c-251.335111 0-455.111111 203.757037-455.111111 455.111111s203.776 455.111111 455.111111 455.111111 455.111111-203.757037 455.111111-455.111111-203.776-455.111111-455.111111-455.111111zM512 853.333333c-188.22637 0-341.333333-153.125926-341.333333-341.333333s153.106963-341.333333 341.333333-341.333333 341.333333 153.125926 341.333333 341.333333-153.106963 341.333333-341.333333 341.333333z" p-id="6476" fill="#555555"></path><path d="M626.327704 512l-85.883259 0c-15.720296 0-28.444444-12.743111-28.444444-28.444444l0-85.902222c0-31.099259-25.220741-56.32-56.338963-56.32l-1.118815 0c-31.118222 0-56.338963 25.220741-56.338963 56.32l0 171.804444c0 31.099259 25.220741 56.32 56.338963 56.32l171.785481 0c31.118222 0 56.338963-25.220741 56.338963-56.32l0-1.137778c0-31.099259-25.220741-56.32-56.338963-56.32z" p-id="6477" fill="#555555"></path></svg>