<?xml version="1.0" standalone="no"?><!DOCTYPE svg PUBLIC "-//W3C//DTD SVG 1.1//EN" "http://www.w3.org/Graphics/SVG/1.1/DTD/svg11.dtd"><svg t="1503638175433" class="icon" style="" viewBox="0 0 1046 1024" version="1.1" xmlns="http://www.w3.org/2000/svg" p-id="3251" xmlns:xlink="http://www.w3.org/1999/xlink" width="261.5" height="256"><defs><style type="text/css"></style></defs><path d="M63.104 775.850667a3.212 3.245 0 1 0 137.045333 0 3.212 3.245 0 1 0-137.045333 0Z" p-id="3252" fill="#cdcdcd"></path><path d="M310.208 256.597333l132.544 0c18.944 0 34.261333-15.509333 34.261333-34.624 0-19.114667-15.317333-34.624-34.261333-34.624l-132.544 0c-18.922667 0-34.261333 15.509333-34.261333 34.624C275.968 241.109333 291.285333 256.597333 310.208 256.597333z" p-id="3253" fill="#cdcdcd"></path><path d="M63.104 498.922667a3.212 3.245 0 1 0 137.045333 0 3.212 3.245 0 1 0-137.045333 0Z" p-id="3254" fill="#cdcdcd"></path><path d="M310.208 533.546667l132.544 0c18.944 0 34.261333-15.488 34.261333-34.624 0-19.114667-15.317333-34.624-34.261333-34.624l-132.544 0c-18.922667 0-34.261333 15.509333-34.261333 34.624C275.968 518.058667 291.285333 533.546667 310.208 533.546667z" p-id="3255" fill="#cdcdcd"></path><path d="M63.104 221.994667a3.212 3.245 0 1 0 137.045333 0 3.212 3.245 0 1 0-137.045333 0Z" p-id="3256" fill="#cdcdcd"></path><path d="M762.752 741.226667 310.208 741.226667c-18.944 0-34.261333 15.488-34.261333 34.624 0 19.136 15.317333 34.624 34.261333 34.624l452.544 0c18.944 0 34.261333-15.488 34.261333-34.624C797.013333 756.714667 781.696 741.226667 762.752 741.226667z" p-id="3257" fill="#cdcdcd"></path><path d="M861.504 541.226667c69.418667-38.101333 116.586667-111.872 116.586667-196.48 0-123.52-100.48-224-224-224s-224 100.48-224 224 100.48 224 224 224c16.277333 0 32.106667-1.856 47.424-5.162667l82.176 226.005333C888.426667 802.602667 900.693333 810.666667 913.770667 810.666667c3.626667 0 7.338667-0.597333 10.944-1.92 16.597333-6.037333 25.173333-24.426667 19.136-41.024L861.504 541.226667zM594.090667 344.768c0-88.234667 71.765333-160 160-160s160 71.765333 160 160c0 88.213333-71.765333 160-160 160S594.090667 432.981333 594.090667 344.768z" p-id="3258" fill="#cdcdcd"></path></svg>