<?xml version="1.0" standalone="no"?><!DOCTYPE svg PUBLIC "-//W3C//DTD SVG 1.1//EN" "http://www.w3.org/Graphics/SVG/1.1/DTD/svg11.dtd"><svg t="1504187105791" class="icon" style="" viewBox="0 0 1248 1024" version="1.1" xmlns="http://www.w3.org/2000/svg" p-id="4569" xmlns:xlink="http://www.w3.org/1999/xlink" width="312" height="256"><defs><style type="text/css"></style></defs><path d="M897.268762 0c-107.301048 0-207.352025 104.40102-272.892665 182.701784-65.830643-78.300765-165.591617-182.701784-273.182667-182.701784C157.471538 0 0 151.961484 0 338.723308c0 111.361088 56.550552 189.661852 101.790994 252.302464C233.742283 773.437553 564.925517 1000.509771 579.135656 1010.079864c13.630133 9.280091 29.290286 13.920136 45.240441 13.920136s31.610309-4.640045 45.240442-13.920136c13.920136-9.570093 345.393373-236.642311 477.344662-419.054092 45.240442-62.930615 101.790994-140.941376 101.790994-252.302464C1248.462192 151.961484 1090.990654 0 897.268762 0m0 0z" p-id="4570" fill="#555555"></path></svg>