<?xml version="1.0" standalone="no"?><!DOCTYPE svg PUBLIC "-//W3C//DTD SVG 1.1//EN" "http://www.w3.org/Graphics/SVG/1.1/DTD/svg11.dtd"><svg t="1514010109173" class="icon" style="" viewBox="0 0 1024 1024" version="1.1" xmlns="http://www.w3.org/2000/svg" p-id="1863" xmlns:xlink="http://www.w3.org/1999/xlink" width="200" height="200"><defs><style type="text/css"></style></defs><path d="M504.996492 153.163355c4.621251 0 9.241478 0 13.862729 0 0.64366 0.286526 1.261737 0.724501 1.934049 0.836041 20.524452 3.400446 34.44244 14.935154 43.62252 33.522488 27.169803 55.014988 54.796 109.803825 82.179674 164.712389 1.49812 3.003404 2.967588 5.149277 6.79066 5.687536 65.168232 9.184173 130.311905 18.550495 195.469903 27.811416 23.664979 3.363607 41.225937 19.446911 46.547129 42.844807 0.147356 0.648776 0.620124 1.223874 0.940418 1.832741 0 4.621251 0 9.241478 0 13.862729-3.486404 17.596773-15.547091 29.193903-27.850301 40.930201-43.841507 41.825594-87.386256 83.962274-131.100874 125.921921-2.351558 2.257413-3.557012 4.290723-2.937912 7.816013 11.109012 63.271022 22.069645 126.56865 33.073256 189.858092 3.87833 22.309098-5.600555 43.11189-25.346271 54.122665-18.97005 10.578939-38.290071 10.388605-57.540508 0.403183-55.613622-28.844955-111.252827-57.641815-166.788677-86.638219-4.205788-2.196015-7.315616-2.367931-11.617595-0.119727-55.362912 28.942169-110.855784 57.634652-166.281117 86.458117-12.70844 6.608511-25.933649 9.155521-40.177048 6.665817-28.563546-4.993734-48.584532-31.68156-43.847647-59.058071 11.04352-63.822584 22.177092-127.630842 33.383318-191.424774 0.593518-3.37998-0.144286-5.578042-2.636037-7.91425-10.240225-9.599635-20.277836-19.416212-30.392194-29.148877-37.131689-35.730783-74.220399-71.505567-111.425765-107.160625-10.339486-9.908674-16.690124-21.627577-17.176195-36.038798-0.899486-26.678616 19.660782-49.450249 47.570435-53.248761 20.929682-2.848884 41.830711-5.906523 62.738903-8.902764 43.750433-6.27082 87.491657-12.612249 131.259486-18.759249 3.942799-0.553609 6.17156-2.039449 7.975649-5.668093 27.647687-55.606459 55.527664-111.097284 83.176374-166.70272 8.127098-16.344247 20.839631-26.588565 38.45687-30.939663C500.910431 154.219407 502.951927 153.684218 504.996492 153.163355z" p-id="1864" fill="#555555"></path></svg>