<?xml version="1.0" standalone="no"?><!DOCTYPE svg PUBLIC "-//W3C//DTD SVG 1.1//EN" "http://www.w3.org/Graphics/SVG/1.1/DTD/svg11.dtd"><svg t="1503410077061" class="icon" style="" viewBox="0 0 1024 1024" version="1.1" xmlns="http://www.w3.org/2000/svg" p-id="2979" xmlns:xlink="http://www.w3.org/1999/xlink" width="256" height="256"><defs><style type="text/css"></style></defs><path d="M571.934577 843.070976C537.836728 819.20235 495.700214 819.20235 461.541432 843.113492L269.430589 964.412887C233.777254 987.584973 178.81941 961.446487 178.81941 922.37225L178.81941 165.163075C178.81941 103.360707 251.831342 50.81941 331.277629 50.81941L712.423188 50.81941C778.672732 50.81941 814.062003 91.490662 814.062003 165.163075L814.062003 922.37225C814.062003 964.644516 779.284132 985.837281 746.598943 964.591908L571.934577 843.070976ZM864.881413 922.37225 864.881413 165.163075C864.881413 64.87383 808.432758 0 712.423188 0L331.277629 0C226.685066 0 128 71.016356 128 165.163075L128 922.37225C128 1003.374362 228.90302 1051.364823 296.847186 1007.201116L489.681546 885.413555C507.34508 873.08393 526.191857 873.08393 542.852485 884.746373L718.240374 1006.755471C786.658611 1051.242286 864.881413 1003.57527 864.881413 922.37225Z" p-id="2980" fill="#555555" class=""></path></svg>