<?xml version="1.0" standalone="no"?><!DOCTYPE svg PUBLIC "-//W3C//DTD SVG 1.1//EN" "http://www.w3.org/Graphics/SVG/1.1/DTD/svg11.dtd"><svg t="1504190305637" class="icon" style="" viewBox="0 0 1024 1024" version="1.1" xmlns="http://www.w3.org/2000/svg" p-id="6596" xmlns:xlink="http://www.w3.org/1999/xlink" width="256" height="256"><defs><style type="text/css"></style></defs><path d="M736 96l-128 0c-78.016 0-106.336 10.336-160 64L128 480c-37.76 37.76-46.752 113.248 0 160l256 256c25.248 25.248 55.968 32 83.008 32 32.512 0 59.744-14.752 76.992-32l320-320c55.744-55.744 64-86.272 64-160L928 288C928 142.656 881.344 96 736 96zM704 416c-52.928 0-96-43.072-96-96s43.072-96 96-96 96 43.072 96 96S756.928 416 704 416z" p-id="6597" fill="#555555"></path></svg>